<?xml version="1.0" encoding="UTF-8"?>
<svg width="290px" height="44px" viewBox="0 0 290 44" version="1.1" xmlns="http://www.w3.org/2000/svg" xmlns:xlink="http://www.w3.org/1999/xlink">
    <title>编组</title>
    <defs>
        <polygon id="path-1" points="0 0 7.89224099 0 7.89224099 8.00033392 0 8.00033392"></polygon>
        <polygon id="path-3" points="0 0 27.6208671 0 27.6208671 32.0010018 0 32.0010018"></polygon>
        <polygon id="path-5" points="0 0 27.6195496 0 27.6195496 31.999833 0 31.999833"></polygon>
    </defs>
    <g id="页面-1" stroke="none" stroke-width="1" fill="none" fill-rule="evenodd">
        <g id="0-1-首页默认" transform="translate(-40.000000, -31.000000)">
            <g id="头部" transform="translate(40.000000, 30.000000)">
                <g id="编组" transform="translate(0.000000, 1.000000)">
                    <g transform="translate(47.740482, 9.382252)" fill="#FFFFFF">
                        <path d="M8.76018987,4.73829201 C8.02070401,4.73829201 7.41626903,4.93697304 6.94194403,5.33433509 C6.46926599,5.73336673 6.23210349,6.30603556 6.23210349,7.05401119 C6.23210349,7.8036564 6.45114941,8.40637783 6.89088821,8.86217547 C7.32898005,9.31797312 7.9004758,9.67025628 8.60372849,9.91568578 C9.30862815,10.1611153 10.092582,10.3948577 10.9588839,10.6169129 C11.8235388,10.8406378 12.6832529,11.1077719 13.5380261,11.4249937 C14.3911523,11.740546 15.1718122,12.1328992 15.8750649,12.600384 C16.5799645,13.0678688 17.1498133,13.7290258 17.5895521,14.5821855 C18.027644,15.4386844 18.2466899,16.4604725 18.2466899,17.6542282 C18.2466899,19.7378746 17.4100333,21.5209951 15.7367201,23.0069288 C14.0634069,24.4945321 11.858125,25.2358294 9.12416843,25.2358294 C6.38856486,25.2358294 4.183283,24.567994 2.51161676,23.2356624 C0.836656599,21.9016612 0,20.0066784 0,17.5490442 L6.30127588,17.5490442 C6.46267814,19.5158194 7.45579611,20.4975374 9.27898284,20.4975374 C10.1321091,20.4975374 10.8024225,20.2688037 11.2882762,19.8130061 C11.772483,19.3572084 12.0145864,18.7778613 12.0145864,18.0749645 C12.0145864,17.3737374 11.7955405,16.8010685 11.3574486,16.3552884 C10.9177098,15.9111779 10.3462141,15.5605643 9.6429614,15.3034477 C8.93806174,15.0463311 8.15410792,14.8059103 7.28780601,14.5821855 C6.42315106,14.3617998 5.56343699,14.0863177 4.71031078,13.7590784 C3.85389063,13.4318391 3.07652466,13.0394858 2.37162501,12.5820185 C1.66837231,12.1262209 1.09687657,11.4717422 0.658784724,10.6169129 C0.219045921,9.76375323 0,8.75198264 0,7.58160114 C0,5.2892562 0.843244447,3.45103932 2.52808638,2.07028967 C4.21292831,0.691209617 6.36550739,0 8.98582363,0 C11.6044929,0 13.7224858,0.602721429 15.3381553,1.80816429 C16.9538249,3.01193756 17.7970693,4.9135988 17.8662417,7.51147842 L11.426621,7.51147842 C11.3327442,6.62158778 11.0511137,5.93705652 10.5784357,5.45788463 C10.1041107,4.97871275 9.49802876,4.73829201 8.76018987,4.73829201" id="Fill-1"></path>
                        <path d="M31.1259312,19.9006595 L33.2373363,19.9006595 L33.2373363,24.9895651 L30.2250431,24.9895651 C28.0559944,24.9895651 26.3760934,24.5053844 25.1886339,23.5336839 C23.9978805,22.5636531 23.4049743,20.8957342 23.4049743,18.531597 L23.4049743,10.3890141 L21.604845,10.3890141 L21.604845,5.4052926 L23.4049743,5.4052926 L23.4049743,0.631939227 L29.325802,0.631939227 L29.325802,5.4052926 L33.2027501,5.4052926 L33.2027501,10.3890141 L29.325802,10.3890141 L29.325802,18.531597 C29.325802,19.4448618 29.9252961,19.9006595 31.1259312,19.9006595" id="Fill-3"></path>
                        <path d="M43.2088666,5.40512564 L43.2088666,9.05484598 C44.5939614,6.48201018 46.4402056,5.19475749 48.7492461,5.19475749 L48.7492461,11.302112 L47.2949788,11.302112 C45.9329414,11.302112 44.9118251,11.6293514 44.2299829,12.28383 C43.5497877,12.9399783 43.2088666,14.0869856 43.2088666,15.7248518 L43.2088666,24.9893981 L37.2880389,24.9893981 L37.2880389,5.40512564 L43.2088666,5.40512564 Z" id="Fill-5"></path>
                        <path d="M62.7021418,11.1785625 C62.0104179,10.6058936 61.1902309,10.3187244 60.2432279,10.3187244 C59.2978718,10.3187244 58.5007423,10.6058936 57.8551332,11.1785625 C57.2078772,11.7529009 56.8043716,12.4958678 56.6429693,13.4074631 L63.8797195,13.4074631 C63.7874897,12.4958678 63.3938658,11.7529009 62.7021418,11.1785625 M60.1740555,25.2348276 C57.3577508,25.2348276 55.0503573,24.3182236 53.250228,22.4816763 C51.4484518,20.6434594 50.5492107,18.2041907 50.5492107,15.1622005 C50.5492107,12.1202104 51.4435109,9.69930712 53.2321114,7.89782119 C55.020712,6.09633525 57.3346933,5.19475749 60.1740555,5.19475749 C63.0134176,5.19475749 65.368573,6.08464813 67.2378747,7.86275983 C69.1071763,9.64087153 70.0426506,12.1085232 70.0426506,15.2673846 C70.0426506,15.9469071 69.9948887,16.5780115 69.9043058,17.1623675 L56.6083831,17.1623675 C56.7236705,18.0288839 57.1041187,18.7367894 57.7513746,19.286084 C58.3969837,19.8370482 59.0952955,20.1108607 59.8463101,20.1108607 C60.5956777,20.1108607 61.1556447,20.0357292 61.5245642,19.8837966 C61.8934836,19.7318641 62.1652323,19.5799315 62.3381633,19.4263294 C62.5110943,19.2760664 62.736728,19.0239586 63.0134176,18.6716754 L69.4184521,18.6716754 C68.8650729,20.6384506 67.7566676,22.2228901 66.0948832,23.4283329 C64.4330987,24.6337758 62.4600385,25.2348276 60.1740555,25.2348276" id="Fill-7"></path>
                        <path d="M85.6220859,18.7773604 C86.4768591,17.9358878 86.9034222,16.7421321 86.9034222,15.1977628 C86.9034222,13.6533934 86.4768591,12.4663161 85.6220859,11.634861 C84.7673127,10.8050755 83.7873704,10.389348 82.6789651,10.389348 C81.5722068,10.389348 80.5906175,10.8100843 79.7358444,11.6515569 C78.8827181,12.4946991 78.4545081,13.6884548 78.4545081,15.2328241 C78.4545081,16.7771934 78.8827181,17.9642708 79.7358444,18.7957259 C80.5906175,19.6255113 81.5722068,20.0412388 82.6789651,20.0412388 C83.7873704,20.0412388 84.7673127,19.6205025 85.6220859,18.7773604 M74.9925944,22.4287503 C73.284695,20.5554721 72.4315687,18.1579431 72.4315687,15.2328241 C72.4315687,12.3077052 73.284695,9.90349779 74.9925944,8.02020202 C76.7004937,6.13690625 78.7839004,5.19525837 81.2428144,5.19525837 C83.7000814,5.19525837 85.5874997,6.11854078 86.9034222,7.96677519 L86.9034222,5.40562651 L92.8242499,5.40562651 L92.8242499,24.989899 L86.9034222,24.989899 L86.9034222,22.1482595 C85.4722123,24.206862 83.5567958,25.2353285 81.1555254,25.2353285 C78.7559021,25.2353285 76.7004937,24.300359 74.9925944,22.4287503" id="Fill-9"></path>
                        <path d="M103.937289,5.40512564 L103.937289,8.28349612 C105.160982,6.22489356 107.110985,5.19475749 109.788945,5.19475749 C111.220154,5.19475749 112.494903,5.52199683 113.614837,6.1764755 C114.734771,6.83262376 115.604367,7.76926288 116.228565,8.98472327 C116.943347,7.83938559 117.872233,6.92111195 119.015225,6.22990233 C120.158216,5.5403623 121.434612,5.19475749 122.842764,5.19475749 C125.196272,5.19475749 127.065574,5.931046 128.450669,7.4052926 C129.835764,8.87953919 130.529135,10.9281242 130.529135,13.5477085 L130.529135,24.9893981 L124.642893,24.9893981 L124.642893,14.3557893 C124.642893,13.0919108 124.313501,12.1152016 123.656363,11.423992 C122.997578,10.734452 122.091749,10.3888471 120.937229,10.3888471 C119.782709,10.3888471 118.87688,10.734452 118.219742,11.423992 C117.560957,12.1152016 117.233212,13.0919108 117.233212,14.3557893 L117.233212,24.9893981 L111.346971,24.9893981 L111.346971,14.3557893 C111.346971,13.0919108 111.017578,12.1152016 110.36044,11.423992 C109.701656,10.734452 108.795827,10.3888471 107.642953,10.3888471 C106.486786,10.3888471 105.582604,10.734452 104.923819,11.423992 C104.266682,12.1152016 103.937289,13.0919108 103.937289,14.3557893 L103.937289,24.9893981 L98.0164617,24.9893981 L98.0164617,5.40512564 L103.937289,5.40512564 Z" id="Fill-11"></path>
                    </g>
                    <polygon id="Fill-13" fill="#FFFFFF" points="186.199573 14.7873779 186.199573 10.2243927 205.38009 10.2243927 205.38009 14.7873779 198.732953 14.7873779 198.732953 34.864179 192.813772 34.864179 192.813772 14.7873779"></polygon>
                    <g>
                        <path d="M214.832498,15.2789047 L214.832498,18.9286251 C216.217593,16.3557893 218.063837,15.0685366 220.372878,15.0685366 L220.372878,21.1758911 L218.918611,21.1758911 C217.556573,21.1758911 216.535457,21.5031305 215.853615,22.1576091 C215.173419,22.8137574 214.832498,23.9607647 214.832498,25.5986309 L214.832498,34.8631772 L208.911671,34.8631772 L208.911671,15.2789047 L214.832498,15.2789047 Z" id="Fill-14" fill="#FFFFFF"></path>
                        <path d="M235.364018,28.6511395 C236.218791,27.8096669 236.645355,26.6159112 236.645355,25.0715419 C236.645355,23.5271726 236.218791,22.3400952 235.364018,21.5086401 C234.509245,20.6788547 233.529303,20.2631271 232.420898,20.2631271 C231.314139,20.2631271 230.33255,20.6838634 229.477777,21.525336 C228.624651,22.3684782 228.196441,23.5622339 228.196441,25.1066032 C228.196441,26.6509725 228.624651,27.8380499 229.477777,28.669505 C230.33255,29.4992904 231.314139,29.9150179 232.420898,29.9150179 C233.529303,29.9150179 234.509245,29.4942817 235.364018,28.6511395 M224.734527,32.3025294 C223.026627,30.4292512 222.173501,28.0317222 222.173501,25.1066032 C222.173501,22.1814843 223.026627,19.7772769 224.734527,17.8939811 C226.442426,16.0106854 228.525833,15.0690375 230.984747,15.0690375 C233.442014,15.0690375 235.329432,15.9923199 236.645355,17.8405543 L236.645355,15.2794056 L242.566182,15.2794056 L242.566182,34.8636781 L236.645355,34.8636781 L236.645355,32.0220386 C235.214145,34.0806411 233.298728,35.1091076 230.897458,35.1091076 C228.497835,35.1091076 226.442426,34.1741381 224.734527,32.3025294" id="Fill-16" fill="#FFFFFF"></path>
                        <path d="M259.531207,28.6511395 C260.384333,27.8096669 260.810896,26.6159112 260.810896,25.0715419 C260.810896,23.5271726 260.384333,22.3400952 259.531207,21.5086401 C258.676433,20.6788547 257.696491,20.2631271 256.588086,20.2631271 C255.47968,20.2631271 254.498091,20.6838634 253.644965,21.525336 C252.790192,22.3684782 252.361982,23.5622339 252.361982,25.1066032 C252.361982,26.6509725 252.790192,27.8380499 253.644965,28.669505 C254.498091,29.4992904 255.47968,29.9150179 256.588086,29.9150179 C257.696491,29.9150179 258.676433,29.4942817 259.531207,28.6511395 M248.901715,32.3025294 C247.192169,30.4292512 246.339042,28.0317222 246.339042,25.1066032 C246.339042,22.1814843 247.192169,19.7772769 248.901715,17.8939811 C250.609614,16.0106854 252.693021,15.0690375 255.151935,15.0690375 C257.609202,15.0690375 259.49662,15.9923199 260.810896,17.8405543 L260.810896,8.89156023 L266.731724,8.89156023 L266.731724,34.8636781 L260.810896,34.8636781 L260.810896,32.0220386 C259.379686,34.0806411 257.464269,35.1091076 255.064646,35.1091076 C252.663376,35.1091076 250.609614,34.1741381 248.901715,32.3025294" id="Fill-18" fill="#FFFFFF"></path>
                        <path d="M282.659491,21.0525086 C281.96612,20.4798397 281.14758,20.1926705 280.200577,20.1926705 C279.255221,20.1926705 278.458092,20.4798397 277.812483,21.0525086 C277.165227,21.626847 276.761721,22.3698138 276.600319,23.2814091 L283.837069,23.2814091 C283.743192,22.3698138 283.351215,21.626847 282.659491,21.0525086 M280.131405,35.1087737 C277.3151,35.1087737 275.007707,34.1921696 273.207577,32.3556223 C271.407448,30.5174055 270.50656,28.0781367 270.50656,25.0361466 C270.50656,21.9941564 271.40086,19.5732532 273.189461,17.7717673 C274.978061,15.9702813 277.292043,15.0687036 280.131405,15.0687036 C282.970767,15.0687036 285.324275,15.9585942 287.195224,17.7367059 C289.064526,19.5148176 290,21.9824693 290,25.1413307 C290,25.8208532 289.953885,26.4519576 289.861655,27.0363135 L276.565733,27.0363135 C276.68102,27.90283 277.063115,28.6107355 277.708724,29.1600301 C278.354333,29.7109942 279.052645,29.9848067 279.803659,29.9848067 C280.553027,29.9848067 281.112994,29.9096753 281.481914,29.7577427 C281.850833,29.6058102 282.122582,29.4538776 282.295513,29.3002755 C282.468444,29.1500125 282.694077,28.8979047 282.970767,28.5456215 L289.375801,28.5456215 C288.822422,30.5123967 287.714017,32.0968361 286.05388,33.302279 C284.390448,34.5077218 282.417388,35.1087737 280.131405,35.1087737" id="Fill-20" fill="#FFFFFF"></path>
                        <path d="M33.5420242,0 L33.5420242,0 C35.7209547,0 37.4881447,1.7914684 37.4881447,4.00033392 C37.4881447,6.20919943 35.7209547,8.00066784 33.5420242,8.00066784 C31.3630937,8.00066784 29.5959037,6.20919943 29.5959037,4.00033392 C29.5959037,1.7914684 31.3630937,0 33.5420242,0" id="Fill-22" fill="#5FDCF0"></path>
                        <g transform="translate(3.111770, 35.999666)">
                            <mask id="mask-2" fill="white">
                                <use xlink:href="#path-1"></use>
                            </mask>
                            <g id="Clip-25"></g>
                            <path d="M3.9461205,0 L3.9461205,0 C6.12505097,0 7.89224099,1.7914684 7.89224099,4.00033392 C7.89224099,6.20919943 6.12505097,8.00066784 3.9461205,8.00066784 C1.76719002,8.00066784 0,6.20919943 0,4.00033392 C0,1.7914684 1.76719002,0 3.9461205,0" id="Fill-24" fill="#5B86E5" mask="url(#mask-2)"></path>
                        </g>
                        <g>
                            <mask id="mask-4" fill="white">
                                <use xlink:href="#path-3"></use>
                            </mask>
                            <g id="Clip-27"></g>
                            <path d="M23.6747466,24.0003339 L15.7825056,24.0003339 C11.4312325,24.0003339 7.8919116,20.4107188 7.8919116,15.9996661 C7.8919116,11.5886134 11.4312325,8.00066784 15.7825056,8.00066784 L23.6747466,8.00066784 C25.8536771,8.00066784 27.6208671,6.20919943 27.6208671,4.00033392 C27.6208671,1.7914684 25.8536771,0 23.6747466,0 L15.7825056,0 C7.07995943,0 -0.000329392362,7.17756073 -0.000329392362,15.9996661 C-0.000329392362,24.8217714 7.07995943,32.0010018 15.7825056,32.0010018 L23.6747466,32.0010018 C25.8536771,32.0010018 27.6208671,30.2095334 27.6208671,28.0006678 C27.6208671,25.7901327 25.8536771,24.0003339 23.6747466,24.0003339" id="Fill-26" fill="#5FDCF0" mask="url(#mask-4)"></path>
                        </g>
                        <g transform="translate(11.840503, 12.000167)">
                            <mask id="mask-6" fill="white">
                                <use xlink:href="#path-5"></use>
                            </mask>
                            <g id="Clip-29"></g>
                            <path d="M11.8367145,0 L3.94447353,0 C1.76554306,0 0,1.78979881 0,4.00033392 C0,6.20919943 1.76554306,8.00066784 3.94447353,8.00066784 L11.8367145,8.00066784 C16.1879876,8.00066784 19.7289555,11.5886134 19.7289555,15.9996661 C19.7289555,20.4107188 16.1879876,24.0003339 11.8367145,24.0003339 L3.94447353,24.0003339 C1.76554306,24.0003339 0,25.7901327 0,28.0006678 C0,30.2095334 1.76554306,32.0010018 3.94447353,32.0010018 L11.8367145,32.0010018 C20.5392607,32.0010018 27.6195496,24.8217714 27.6195496,15.9996661 C27.6195496,7.17756073 20.5392607,0 11.8367145,0" id="Fill-28" fill="#5B86E5" mask="url(#mask-6)"></path>
                        </g>
                    </g>
                </g>
            </g>
        </g>
    </g>
</svg>