<?xml version="1.0" encoding="UTF-8"?>
<svg width="36px" height="18px" viewBox="0 0 36 18" version="1.1" xmlns="http://www.w3.org/2000/svg" xmlns:xlink="http://www.w3.org/1999/xlink">
    <title>钱包</title>
    <g id="页面-1" stroke="none" stroke-width="1" fill="none" fill-rule="evenodd">
        <g id="钱包默认状态" transform="translate(-1338.000000, -520.000000)">
            <g id="钱包" transform="translate(1338.000000, 520.000000)">
                <rect id="矩形" stroke="#B2B2B2" x="0.5" y="0.5" width="35" height="17" rx="8.5"></rect>
                <g transform="translate(12.000000, 3.000000)" fill-rule="nonzero">
                    <rect id="矩形" fill="#000000" opacity="0" x="0" y="0" width="12" height="12"></rect>
                    <path d="M10.5,1.00366666 L1.5,1.00366666 C0.671666672,1.00366666 0,1.65366667 0,2.45533334 L0,9.23 C0,10.0316667 0.671666672,10.6816667 1.5,10.6816667 L10.5,10.6816667 C11.3283333,10.6816667 12,10.0316667 12,9.23 L12,2.45533334 C12,1.65366667 11.3283333,1.00366666 10.5,1.00366666 Z M0.999999996,4.87466667 L4.5,4.87466667 C5.05233333,4.87466667 5.5,5.30800001 5.5,5.84233334 C5.5,6.377 5.05233333,6.81033333 4.5,6.81033333 L0.999999996,6.81033333 L0.999999996,4.87466667 L0.999999996,4.87466667 Z M11,9.23 C11,9.497 10.776,9.71366667 10.5,9.71366667 L1.5,9.71366667 C1.224,9.71366667 0.999999996,9.497 0.999999996,9.23 L0.999999996,7.77833333 L4.5,7.77833333 C5.60466667,7.77833333 6.5,6.91166666 6.5,5.84266666 C6.5,4.774 5.60466667,3.90733334 4.5,3.90733334 L0.999999996,3.90733334 L0.999999996,2.45533334 C0.999999996,2.18800001 1.224,1.97166667 1.5,1.97166667 L10.5,1.97166667 C10.776,1.97166667 11,2.18833334 11,2.45533334 L11,9.23 Z M3.9,5.84233334 C3.9,6.01566667 3.99533333,6.17500001 4.15,6.26166667 C4.30466666,6.34833333 4.49533332,6.34833334 4.65,6.26166667 C4.80466666,6.175 4.9,6.01533334 4.9,5.84233334 C4.9,5.66966667 4.80466666,5.51 4.65,5.42333333 C4.49454671,5.33687187 4.30545329,5.33687187 4.15,5.42333333 C3.99533333,5.51 3.9,5.66966666 3.9,5.84233334 Z" id="形状" fill="#B2B2B2"></path>
                </g>
            </g>
        </g>
    </g>
</svg>