<?xml version="1.0" encoding="UTF-8"?>
<svg width="20px" height="20px" viewBox="0 0 20 20" version="1.1" xmlns="http://www.w3.org/2000/svg" xmlns:xlink="http://www.w3.org/1999/xlink">
    <title>Guide</title>
    <g id="页面-1" stroke="none" stroke-width="1" fill="none" fill-rule="evenodd">
        <g id="加Guide" transform="translate(-1574.000000, -25.000000)" fill="#FFFFFF" fill-rule="nonzero">
            <g id="编组-6" transform="translate(1556.000000, 15.000000)">
                <path d="M37.8574055,14.018 C38.0481982,14.196 38.0481982,14.376 37.8574055,14.554 L35.9451916,16.34 C35.8165673,16.4 35.7200991,16.428 35.6579307,16.428 L29.5311287,16.428 L29.5311287,18.57 L35.2742017,18.57 C35.5293065,18.57 35.6579307,18.69 35.6579307,18.928 L35.6579307,22.5 C35.6579307,22.74 35.5293065,22.858 35.2742017,22.858 L29.5311287,22.858 L29.5311287,29.644 C29.5311287,29.882 29.4046481,30 29.1495434,30 L27.6189147,30 C27.3638099,30 27.2351857,29.882 27.2351857,29.642 L27.2351857,22.858 L20.345213,22.858 C20.2809009,22.858 20.1865764,22.83 20.0579522,22.768 L18.1435945,20.982 C17.9528018,20.804 17.9528018,20.624 18.1435945,20.446 L20.0579522,18.66 C20.1865764,18.6 20.2809009,18.57 20.345213,18.57 L27.2351857,18.57 L27.2351857,16.428 L20.7267983,16.428 C20.4716935,16.428 20.3430693,16.31 20.3430693,16.07 L20.3430693,12.5 C20.3430693,12.262 20.4716935,12.142 20.7267983,12.142 L27.2351857,12.142 L27.2351857,10.358 C27.2351857,10.12 27.3638099,10 27.6189147,10 L29.1495434,10 C29.4046481,10 29.5311287,10.12 29.5311287,10.358 L29.5311287,12.144 L35.655787,12.144 C35.7200991,12.144 35.8144236,12.174 35.9430478,12.234 L37.8574055,14.018 Z" id="Guide"></path>
            </g>
        </g>
    </g>
</svg>