<?xml version="1.0" encoding="UTF-8"?>
<svg width="32px" height="32px" viewBox="0 0 32 32" version="1.1" xmlns="http://www.w3.org/2000/svg" xmlns:xlink="http://www.w3.org/1999/xlink">
    <title>logo</title>
    <defs>
        <polygon id="path-1" points="0 0 3.60007513 0 3.60007513 3.63651542 0 3.63651542"></polygon>
        <polygon id="path-3" points="0 0 12.5987604 0 12.5987604 14.5453786 0 14.5453786"></polygon>
    </defs>
    <g id="页面-1" stroke="none" stroke-width="1" fill="none" fill-rule="evenodd">
        <g id="01备份" transform="translate(-1010.000000, -34.000000)">
            <g id="编组-14备份" transform="translate(1006.000000, 30.000000)">
                <g id="logo" transform="translate(4.000000, 4.000000)">
                    <rect id="矩形" fill="#000000" fill-rule="nonzero" opacity="0" x="7" y="8" width="16" height="16"></rect>
                    <path d="M32,16 C32,24.836 24.836,32 16,32 C7.164,32 0,24.836 0,16 C0,7.164 7.164,0 16,0 C24.836,0 32,7.164 32,16" id="Fill-1备份" fill="#333333"></path>
                    <g id="编组-10" transform="translate(7.000000, 6.000000)">
                        <path d="M15.3004696,0 L15.3004696,0 C16.2943968,0 17.1005071,0.81430382 17.1005071,1.81833359 C17.1005071,2.82236338 16.2943968,3.6366672 15.3004696,3.6366672 C14.3065423,3.6366672 13.500432,2.82236338 13.500432,1.81833359 C13.500432,0.81430382 14.3065423,0 15.3004696,0" id="Fill-22" fill="#5FDCF0" fill-rule="nonzero"></path>
                        <g id="Fill-24-Clipped" transform="translate(1.419596, 16.363485)">
                            <mask id="mask-2" fill="white">
                                <use xlink:href="#path-1"></use>
                            </mask>
                            <g id="path-1"></g>
                            <path d="M1.80003756,0 L1.80003756,0 C2.79396482,0 3.60007513,0.81430382 3.60007513,1.81833359 C3.60007513,2.82236338 2.79396482,3.6366672 1.80003756,3.6366672 C0.806110311,3.6366672 0,2.82236338 0,1.81833359 C0,0.81430382 0.806110311,0 1.80003756,0" id="Fill-24" fill="#5B86E5" fill-rule="nonzero" mask="url(#mask-2)"></path>
                        </g>
                        <path d="M10.7994741,10.9092427 L7.19939899,10.9092427 C5.21454956,10.9092427 3.60007513,9.27759944 3.60007513,7.2725755 C3.60007513,5.26755154 5.21454956,3.6366672 7.19939899,3.6366672 L10.7994741,3.6366672 C11.7934014,3.6366672 12.5995117,2.82236338 12.5995117,1.81833359 C12.5995117,0.81430382 11.7934014,0 10.7994741,0 L7.19939899,0 C3.22970012,0 0,3.2625276 0,7.2725755 C0,11.2826234 3.22970012,14.5459099 7.19939899,14.5459099 L10.7994741,14.5459099 C11.7934014,14.5459099 12.5995117,13.731606 12.5995117,12.7275763 C12.5995117,11.7227876 11.7934014,10.9092427 10.7994741,10.9092427" id="Fill-26" fill="#5FDCF0" fill-rule="nonzero"></path>
                        <g id="Fill-28-Clipped" transform="translate(5.401240, 5.454621)">
                            <mask id="mask-4" fill="white">
                                <use xlink:href="#path-3"></use>
                            </mask>
                            <g id="path-5"></g>
                            <path d="M5.39936143,0 L1.7992863,0 C0.805359044,0 0,0.813544916 0,1.81833359 C0,2.82236338 0.805359044,3.6366672 1.7992863,3.6366672 L5.39936143,3.6366672 C7.38421087,3.6366672 8.99943655,5.26755154 8.99943655,7.2725755 C8.99943655,9.27759944 7.38421087,10.9092427 5.39936143,10.9092427 L1.7992863,10.9092427 C0.805359044,10.9092427 0,11.7227876 0,12.7275763 C0,13.731606 0.805359044,14.5459099 1.7992863,14.5459099 L5.39936143,14.5459099 C9.36906029,14.5459099 12.5987604,11.2826234 12.5987604,7.2725755 C12.5987604,3.2625276 9.36906029,0 5.39936143,0" id="Fill-28" fill="#5B86E5" fill-rule="nonzero" mask="url(#mask-4)"></path>
                        </g>
                    </g>
                </g>
            </g>
        </g>
    </g>
</svg>